<svg xmlns="http://www.w3.org/2000/svg" viewBox="0 0 200 200" role="img">
  <path d="M124 34 l30 10 l-6 18 l-30 -10z" fill="#ff7043"/>
  <path d="M60 62 l60 -18 l24 26 l-60 20z" fill="#ffb74d"/>
  <path d="M60 62 l24 28 l0 84 l-28 -14 q-4 -2 -4 -8z" fill="#f57c00"/>
  <path d="M84 90 l60 -20 l0 84 q0 6 -6 8 l-54 14z" fill="#ffa726"/>
  <circle cx="114" cy="122" r="17" fill="#fff3e0"/>
  <path d="M114 108 c-8 0 -13 7 -13 14 c0 8 6 14 13 14 c8 0 13 -6 13 -14 c0 -7 -5 -14 -13 -14z" fill="#ff7043"/>
  <path d="M108 121 q6 -6 12 0 q-6 8 -12 0z" fill="#fff3e0"/>
  <text x="114" y="160" text-anchor="middle" font-family="Verdana, sans-serif" font-size="13" font-weight="bold" fill="#6d3200">JUICE</text>
</svg>