<svg xmlns="http://www.w3.org/2000/svg" viewBox="0 0 200 200" role="img">
  <path d="M100 54 q-2 -18 12 -26" fill="none" stroke="#6b4423" stroke-width="7" stroke-linecap="round"/>
  <path d="M104 50 q26 -14 38 4 q-22 12 -38 -4z" fill="#43a047"/>
  <path d="M100 56 c-10 0 -16 10 -18 24 c-2 12 -12 18 -18 32 c-8 20 4 46 36 46 c32 0 44 -26 36 -46 c-6 -14 -16 -20 -18 -32 c-2 -14 -8 -24 -18 -24z" fill="#c0ca33"/>
  <ellipse cx="82" cy="118" rx="10" ry="16" fill="#ffffff" opacity="0.35" transform="rotate(-14 82 118)"/>
</svg>
